<svg xmlns="http://www.w3.org/2000/svg" xmlns:xlink="http://www.w3.org/1999/xlink" xmlns:serif="http://www.serif.com/" viewBox="0 0 101 125" version="1.1" xml:space="preserve" style="" x="0px" y="0px" fill-rule="evenodd" clip-rule="evenodd" stroke-linejoin="round" stroke-miterlimit="2" fill="currentColor"><rect serif:id="Page 88" x="0.5" y="0" width="100" height="100" style="" fill="none"/><path d="M90.006,5.35c2.841,0 5.144,2.303 5.144,5.144l0,79.012c0,2.841 -2.303,5.144 -5.144,5.144c0,0 -79.012,0 -79.012,0c-2.841,0 -5.144,-2.303 -5.144,-5.144l0,-79.012c0,-2.841 2.303,-5.144 5.144,-5.144l0,0l79.012,0l0,0Zm-73.868,52.675l68.724,0l0,-16.05l-68.724,0l0,16.05Zm0,-26.338l68.724,0l0,-16.049l-68.724,0l0,16.049Zm0,52.675l68.724,0l0,-16.049l-68.724,0l0,16.049Z"/></svg>